<svg xmlns="http://www.w3.org/2000/svg" viewBox="0 0 450 208" xmlns:v="https://vecta.io/nano"><style><![CDATA[.B{clip-path:url(#A)}]]></style><g transform="matrix(.387868 0 0 .387868 1.578911 23.607277)"><clipPath id="A"><path d="M0 .5h508.2v510.9H0z"/></clipPath><path d="M432.7 50.3c34.4 98 32.4 203.3 54 304.1 6 28 14 55.7 24.9 82.2.3.8 2.9 1.5 2.7 1.1-39.4-96.2-38.5-201.9-57.2-302.8-5.2-28.3-12.1-56.3-21.6-83.5-.4-.9-3-1.6-2.8-1.1z" class="B"/><path d="M431 49.6c-2.6 34.7-13.7 67.7-24.4 100.5s-19.4 65.7-23.4 100c-.2 1.6 2.8 2 3 .3 4.2-35.4 13.4-69.1 24.4-102.8 10.4-31.9 20.9-64 23.4-97.7.1-1.7-2.8-2.1-3-.3z" class="B"/><path d="M431.5 52.3C410.8 73.4 389.6 94 367.8 114l-31.9 28.7c-8.9 8.3-17 17.4-26.3 25.3-1.5 1.3.4 1.6 1.4.7 9.3-7.9 17.4-17 26.3-25.3 10.4-9.8 21.4-19 31.9-28.7 21.8-20 43-40.6 63.7-61.7 1.4-1.5-.5-1.7-1.4-.7z" class="B"/><path d="M432.1 49.4c-28.2 19.1-63.9 24.9-96.9 30.4-35.8 6-71.2 11.7-105.8 23.2-1.8.6-.8 2.8.9 2.2 35.9-11.8 72.6-17.4 109.6-23.8 32.3-5.6 66.6-11.7 94.3-30.4 1.6-1.1-.9-2.4-2.1-1.6z" class="B"/><path d="M433.5 50.5C384.8 33.1 333 27.7 281.7 23.7l-78.2-6.2c-27.3-2.7-54.2-7.3-81.3-11.9C90.7.2 59.2-2.8 27.3-5.1c-.9-.1-3.3 1.5-1.7 1.6C53.8-1.4 81.9.9 109.8 5.4c27.1 4.4 54 9.6 81.3 12.6 51.3 5.7 103.1 6.9 154.3 14 29.2 4.1 58.1 10.1 85.9 20 .8.3 3.4-1 2.2-1.5z" class="B"/><path d="M434.5 50.2c-23.3-22.4-51.6-38.8-75.3-60.7-.8-.7-3.5.5-2.6 1.3 23.8 21.9 52 38.3 75.3 60.7.7.7 3.4-.6 2.6-1.3z" class="B"/><path d="M434.7 51c-1.8-19 2.5-39.1 5.7-57.7.1-.6-2.8-1.1-3-.5-3.2 18.6-7.6 38.7-5.7 57.7.1.9 3 1 3 .5z" class="B"/><path d="M434.7 50.9c11.9-12.3 24.6-25 39.5-33.7 16-9.3 33.6-15.4 48.3-27-.1.1-2.3-.7-2.9-.2-15 11.9-33.2 17.9-49.4 27.7-14.4 8.7-26.8 21-38.4 33.1.2-.3 2.3.7 2.9.1z" class="B"/><path d="M435.5 51.3c35.7-6.2 71.6-10.7 107.6-13.5 2-.2.4-2.2-1-2.1-36.1 2.8-72 7.3-107.6 13.5-2 .3-.4 2.3 1 2.1zm-4.2 1.1l54.8 40.3c16.4 12.1 33.8 23.7 46.5 39.9 1.2 1.5 2.9-.2 1.8-1.7-12.5-15.9-29.4-27.4-45.5-39.3l-56.4-41.5c-1.6-1.1-2.6 1.2-1.2 2.3zM147.6 0l-5.8 10.7c-.1.2 0 .5.2.7 22.7 22.2 46 43.8 66.7 68 4.2 4.9 8.3 9.9 12.4 15 2.5 3.1 4.6 6.8 7.2 9.8 1.8 2 4.8 3.1 7.1 4.4l11.7 6.5c8.5 4.7 17.2 9.2 25.3 14.4 13.6 8.7 23.9 22.6 32.3 36.1 4.1 6.6 11.7 10.5 17.5 15.8 6.3 5.8 12.2 12 18.5 17.8 13.6 12.8 27.5 25.6 37.6 41.5 1.8 2.8 2.8 5.9 4.4 8.8 1.4 2.6 4.3 2.7 7.1 3.4 8.9 2.1 17.6 4.3 26.1 7.7 19 7.5 36.6 18.8 51.6 32.6 3.5 3.2 6.6 6.9 10.4 9.7 3.5 2.5 7.4 3.3 11.4 4.5 9.8 3 17.4 10.2 21.4 19.6.4 1 3.4.6 2.8-.7-2.8-6.9-7.6-12.7-13.9-16.6-2.8-1.7-5.8-3-8.9-4-5.8-1.7-10.3-3.5-14.7-7.8-12.9-12.5-27-23.4-42.9-31.8-8-4.1-16.3-7.6-24.8-10.4-4.2-1.4-8.5-2.5-12.8-3.5-3.1-.7-8.3-.9-10-3.8-1.9-3.2-3.1-6.7-5.2-9.8-2.6-3.9-5.3-7.6-8.3-11.2-5.8-7-12.2-13.5-18.7-19.8-13.4-12.9-26.5-26.2-41.2-37.6-5.7-4.4-9.1-12.5-13.5-18.2-4.8-6.4-10.1-12.4-16.1-17.7-6.7-5.8-14.5-9.9-22.1-14.2l-24.9-13.8c-2.5-1.4-4.1-2.3-5.6-4.6-1.3-1.9-2.7-3.6-4-5.4-3.5-4.6-7.2-9-10.9-13.5-8.5-10.1-17-20.2-26.4-29.4l-25.7-25.1-12.5-12.2c-2.7-2.6-5.1-4-3.7-7.8 1-2.6 2.8-5.2 4.1-7.6.4-1.3-2.6-1.5-3.2-.5z" class="B"/><path d="M437.2-4.5c-4.8 15.5-24.2 28.1-40.3 24-.8-.2-2.3.2-2.5 1.1-2.2 8.1-6.4 13.8-15 15.5-.3.1-2.2.9-1.5 1.4 9.5 6.5 14.6 19.7 13.4 31 0 .5.6.5.9.5 4.4-.6 9.3 2.3 11.9 5.7 1.3 1.7 1.7 3 3.9 3.6 3.8.9 7.2.9 10.6 3.4 2.6 1.9 4.7 4.4 6.5 7.1.3.4.9.3 1.3.2 5.9-1.4 12.7-5.1 17.7-.1.6.6 2.3-.2 2.6-.8 3.4-6.5 10-10.7 16.9-12.4.3-.1 1.8-.6 1.6-1.2-3.6-9-4.9-18.8-.8-27.9.1-.2.2-.4 0-.5-7.4-5-6.1-13.9-4.2-21.4.1-.5-.6-.5-.9-.5-9 .3-17.4-2.8-24.2-8.6-.7-.6-2.4.2-2.7 1-3 8.1-12.2 13.5-20.3 15.3-.4.1-1.8.6-1.6 1.2 1.7 4.3 3.7 7.7-.8 11.1-.2.1-.8.7-.4.9 4.1 2.3 5.9 10.8 5 15-.1.3.3.5.6.5 2.6 0 4.4.6 5.2 3.2.1.3.6.3.9.3 3.7-.5 6.4 1 8.3 3.9.3.4.8.3 1.3.2 3.3-.6 5.7.3 8.1 2.1.6.5 2.6-.1 2.7-1 .5-3.3 2-6.2 6-7 .3-.1 1.9-.6 1.6-1.2-2.4-4.3-2.4-8.8.2-13 .1-.2.2-.4 0-.5-3.8-2.7-4.4-8.3-.8-11.5.8-.7-.4-1-1-.8-4.5 1.3-9.3.4-12.6-3.1-.5-.6-2.3.2-2.6.8-1.2 2.4-2.5 5-4.9 6.4-1.5.8-3.3 1.2-4.9 1.9-.3.1-1.4.6-1.2 1.1.7 1.8.4 3.8 0 5.6-.2.9 2.6.3 2.8-.7.5-2 .8-4 0-6-.4.4-.8.8-1.2 1.1 5.9-2.5 9-3.7 12-9.8-.9.3-1.8.5-2.6.8 3.9 4.1 9.7 4.7 14.9 3.2-.3-.3-.7-.5-1-.8-3.7 3.3-3.4 7.4-1.3 11.4 1.4 2.6 0 3.5-.4 6.5s.3 5.7 1.8 8.3c.5-.4 1-.8 1.6-1.2-4.8 1-8.4 4.1-9.2 9.1.9-.3 1.8-.7 2.7-1-3.2-2.4-6.5-2.9-10.4-2.3.4.1.8.1 1.3.2-1.4-2.1-3.1-3.6-5.5-4.3-.3-.1-3-.3-3.1-.4-.9-.5-.9-1-1.6-1.6-1-.9-4.1-1.2-4.6-1.9s-.2-4.7-.5-5.7c-.5-2.3-1.2-4.8-2.5-6.9-1.5-2.3-1.8-1.2-.5-3.3 2.6-4.1 1.4-6.3-.4-10.9-.5.4-1 .8-1.6 1.2 9.3-2.1 20-8 23.4-17.4-.9.3-1.8.7-2.7 1 5.1 4.3 11 7.2 17.5 8.4 1.6.3 3.2.2 4.8.5 2.3.5 1.5-.6 2.2 1.2.5 1.2-1 5.3-1.1 6.7-.1 1.2-.1 2.4.1 3.6.3 2.8 1.3 5.5 3.1 7.7 2.8 3.4 1.3 4.6.5 8.5-1.5 7.5.1 15.1 2.9 22 .5-.4 1-.8 1.6-1.2-8 2-16 6.6-19.9 14.1.9-.3 1.8-.5 2.6-.8-5.7-5.7-13.4-1.7-20-.1.4.1.8.1 1.3.2-3.2-4.9-8-9.7-13.9-10.8-1-.2-1.9-.3-2.9-.2-2.1-.5-3.5-1.5-4.2-3.3-.7-.7-1.2-1.3-2.1-2-2.6-2.2-5.2-3.4-8.4-4.3-2.3-.6-1.7.6-2.2-1.8-.3-1.2 0-2.8-.2-4-.3-3.2-1.1-6.3-2.1-9.3-2.3-6.3-6-12.1-11.6-15.9-.5.5-1 .9-1.5 1.4 9.9-1.9 15.5-8.1 18.2-17.6-.8.4-1.7.7-2.5 1.1 17.8 4.6 40-8.8 45.4-26.2.1-.4-2.8.1-3 1z" class="B"/><path d="M437.4-1.1c13.8 11.4 30.7 17.4 48.5 12.8-.6-.7-1.2-1.4-1.9-2.1-7.1 4.8-13 11.9-10 20.9 2.2 6.9 8.4 10.7 15 12.6a23.07 23.07 0 0 1-1.4-1.9c-5.4 8.2-8.7 17.6-11.1 27-2.1 8.5-.8 14.5 5.4 20.8l-.3-1.4c-8.6 3.1-16.5 8-23.4 14.1-3.1 2.7-5.9 7.4-9.9 8.4-3.9 1.1-8.4-1.5-12.7-1.2-4.4.3-8.5 2.1-12.8 2.9-5.6.9-9.8-3.6-14.3-6.3-7.5-4.5-14.7-9.4-23.8-8.2l2.1 1.5c-1.8-6.1-5.2-11.8-9.5-16.5-1.9-2.1-4-4.1-6.5-5.6-1-.7-2.6-1.1-3.5-1.8-2.2-1.8-1.7-4.8-2-7.3-1.7-14.6-9.6-27.8-21-36.9.2.6.4 1.1.6 1.7 7.6-3 15.4-6.2 21.7-11.5 3.1-2.6 5.5-5.7 7.4-9.3 2.6-4.9 6.2-5.7 11-7.7 16.1-6.8 29-20.2 35.6-36.3-.6-.1-1.1-.1-1.7-.2C445.7-14.8 475 3.8 508.6.8c-.6-.7-1.2-1.4-1.9-2.1-9 4.3-12.7 15.2-9.5 24.4 3 8.8 11.2 14.2 19.6 17.1a23.07 23.07 0 0 1-1.4-1.9c-10.3 9.1-15.1 24.2-17.6 37.4-1.9 10-1.2 24.1 7.6 30.9l-.3-1.8c-14 4.4-28.3 7.6-39.7 17.5-2.2 1.9-4.2 3.9-6 6.2-1.9 2.5-3.4 7.7-6.5 7.8-3.2.2-6.9-1.2-10.2-1.4-3.7-.2-7.4-.1-11 .3-3.9.4-7.7 1.2-11.5 2.3-2.9.9-7 3.6-10 3.2-2.2-.3-5.3-4.7-7-6.4-2.4-2.3-5.1-4.5-7.8-6.4-5.3-3.7-11.1-6.7-17.2-9-3.3-1.2-6.8-1.8-10.1-2.9-4.4-1.5-5.2-5.7-7.2-9.4-6.9-12.4-18-22.2-31.1-27.7l1.2 1.5 2.9-19.3c.9-5.8 1.8-11.6.6-17.4-1.3-5.8-3.9-13.8-9.9-16.3.4.6.7 1.2 1.1 1.7 5.7-6.1 12.4-10.7 15.5-18.7 3.3-8.5 3.8-17.5.8-26.1-.4-1-3-1.9-2.4-.3 3.1 9 2.1 19.4-2.3 27.8-3.3 6.3-9.3 10.4-14.1 15.6-.5.6.7 1.6 1.1 1.7 6.9 2.9 8.5 16 8.1 22.2-.7 9.3-2.6 18.6-3.9 27.7-.1.6.7 1.3 1.2 1.5 12.7 5.3 23.3 14.8 29.7 27 1.9 3.6 2.8 8.1 6.9 9.7 2.7 1.1 5.8 1.4 8.6 2.2 3.8 1.1 7.4 2.6 11 4.4 6.5 3.3 12.6 7.6 17.7 12.8 2.1 2.2 4.6 6.5 8.1 6.4 2.3 0 5-1.8 7.1-2.6a62 62 0 0 1 12-3c8.5-1.3 17-.8 25.3 1.2.2.1.9.2 1-.2 8.3-20.6 30.7-25.8 49.7-31.9 1-.3.2-1.4-.3-1.8-9.9-7.6-7-25.4-4.2-35.5 3-10.9 7-22 15.6-29.7.7-.6-1-1.8-1.4-1.9-8.4-2.9-16.3-8.8-17.6-18.2-1-7.8 2.8-15.8 10-19.2 1.2-.6-1.2-2.2-1.9-2.1-32.6 3-61-15.3-87.1-32.5-.3-.2-1.5-.8-1.7-.2-6.8 16.5-20 30-36.6 36.6-3.6 1.4-6.9 2.2-9.1 5.7-2.1 3.4-3.7 6.6-6.6 9.5-6.4 6.1-14.9 9.5-23 12.7-.8.3.3 1.5.6 1.7 6.3 5 11.3 11.3 14.7 18.6 1.6 3.4 2.9 7.1 3.7 10.8.8 3.3.6 6.7 1.3 10 1.1 5.2 6 5.6 9.6 8.8 5.3 4.6 9.5 11.1 11.5 17.8.2.8 1.2 1.6 2.1 1.5 12.3-1.7 21 8.8 31 13.9 6.9 3.5 15.4-2.9 22.8-2.2 3.3.3 7.3 3.1 10.7 1.9 3.1-1.2 5.6-5.5 8-7.8 7.2-6.7 15.7-12.2 25-15.5.7-.2 0-1.2-.3-1.4-7.2-7.3-5.7-14.5-3.1-23.4 2.2-7.7 5.2-15.1 9.6-21.8.5-.8-.8-1.7-1.4-1.9-7.1-2-13.2-7.1-12.8-15.1.3-6.4 5.4-11 10.3-14.3 1.1-.7-1.1-2.3-1.9-2.1-16.6 4.4-32.4-.7-45.3-11.4-1.2-.9-3.2-.4-1.6.9zm88.8 122.9c-20.6 6.9-40.4 17.4-57.5 30.8-2.1 1.6-4 3.3-6 5-3.2 2.7-5.8 3.7-10.1 3.3-5.4-.5-10.8-.9-16.3-.8-12.4.2-24.5 2.3-36.3 6 .6.3 1.3.6 1.9.8-6.6-10.3-15.4-19-25.8-25.4-5.1-3.1-10.5-5.7-16.1-7.7-2.5-.9-5.1-1.6-7.6-2.2-1.5-.4-2.9-.4-4-1.5-1.2-1.2-2-3.6-2.9-5-7-11.7-15.7-22.4-25.7-31.7-2.1-2-4.4-3.7-6.5-5.7-3.9-3.8-3.2-8.6-2.9-13.5.4-5.8-.2-11.6-1.6-17.2-3.2-12.9-10.9-24.3-21.5-32.3.1.7.3 1.3.4 2 23.9-19.1 48.1-42.1 50.8-74.4.1-1.4-2.6-2.3-2.8-.5-2.7 31.5-26.8 54.2-50 72.8-.7.6-.2 1.5.4 2 13.5 10.2 21.7 26.5 21.7 43.5 0 6.1-3.2 12.8 1.8 17.5 6.6 6.2 13.3 11.7 19.3 18.6 5.9 6.8 11.1 14.2 15.6 22 1.1 1.9 1.7 4.1 3.7 5.2 1.5.8 4.2.9 5.9 1.3 2.3.6 4.6 1.3 6.9 2.2 15.9 5.9 29.5 16.9 38.7 31.1.4.6 1.2 1.1 1.9.8 12.5-3.9 25.4-6 38.5-5.9 5.7.1 11.8 1.7 17.5 1.1 4.4-.5 7.5-4.2 10.8-6.9 17.4-14.3 38.1-25.4 59.4-32.5 1.5-.9-.3-3.2-1.6-2.8zm-1.9 50.9c-11-2.2-22.2-2.2-33.2 0-5.6 1.2-11.1 2.9-16.4 5.3-2.6 1.2-5.1 2.6-7.8 3.8-4.3 1.9-8.2 2-12.8 1.4-21.1-2.8-41.2-4.4-59.9 7.8l2.4.9c-6.3-10.2-16.4-16.4-27.2-21-6.5-2.8-13.2-5.1-19.9-7.4-6.4-2.3-17.1-4.6-21.1-10.6-2.3-3.6-3.1-8.7-4.3-12.7-1.1-3.9-2.2-7.8-3.6-11.7-2.4-6.7-5.5-13.3-10.4-18.6-8.4-9.1-20-14.5-31-19.7l1 1.3c-.9-12.4 2.3-25.9-1.6-37.9-3.9-12.1-12.8-24-23.1-31.4.1.5.3 1 .4 1.4 13.5-15.2 23.5-32.5 26.6-52.8.2-1.1-2.6-2.3-2.8-1-3 20-13 37-26.2 52-.4.5-.1 1.1.4 1.4 10.1 7.2 19.7 19.9 22.5 32.1 2.6 11.4.1 23.5 1 35.1 0 .5.5 1 1 1.3 11.9 5.6 25.4 11.5 33.1 22.8 4.4 6.5 6.9 14.3 9.1 21.8 1.8 6.3 2.7 14.6 7.6 19.3 3.7 3.6 9.3 5.3 14 7.1 5.9 2.3 12 4.2 17.9 6.4 13 4.8 26.4 10.7 34 22.9.4.7 1.6 1.4 2.4.9 9.1-6 19.2-9.2 30.1-9.8 11-.5 21.4 2.1 32.2 2.7 4.9.3 8.9-1.3 13.2-3.5 5.4-2.7 10.8-4.9 16.6-6.4 11.8-3.1 24.1-3.4 36.1-1 2.3.2 1-2-.3-2.2z" class="B"/><path d="M527.8 216.8c-13.1-5.1-27.2-7-41.2-5-8.3 1.1-15.5 4.6-23.8 1.9-7.1-2.3-14.2-4.3-21.5-5.5-15-2.5-29.6-1.7-44.6.6-5.5.8-8.7-.9-12.9-4.2-2.9-2.3-5.9-4.6-8.9-6.8-5.9-4.2-12-8-18.3-11.4-12.2-6.7-25-11.8-38.4-15.7-4-1.2-7.4-2.9-9.4-6.8-1.2-2.3-1.8-5-2.8-7.4-1.8-4.5-3.9-8.9-6.4-13-5.4-9-12.6-16.7-20.7-23.3-5.2-4.2-10.7-7.9-16.4-11.3-5.5-3.3-13.2-6-16.3-12.1-1.8-3.6-1.7-8.3-2.4-12.3-.7-3.9-1.5-7.8-2.6-11.7-1.9-6.8-4.3-13.4-7.3-19.7-6.3-13.4-15.1-25.4-25.8-35.6v1.4c11.3-16.1 18.5-34.6 20.9-54.1.2-1.6-2.6-.9-2.8.4-2.4 19.1-9.3 37.2-20.4 52.9-.3.4-.4 1 0 1.4C216 29 224.4 40.4 230.6 53s9.3 25.7 11.4 39.5c.9 6.1 4.1 10 9.3 13.1 6.1 3.6 12.2 6.9 18 10.9 9.8 6.8 18.7 14.9 25.4 24.8a83.72 83.72 0 0 1 7.1 12.8c2 4.5 3 10.1 6.2 13.9 3.9 4.7 11.1 5.4 16.6 7.2 6.8 2.3 13.5 5 20 8 13.8 6.5 26.3 14.8 38.2 24.2 5.4 4.3 9.5 4.1 16.1 3 8.1-1.4 16.4-2 24.6-1.7 9.5.3 18.9 1.7 28.1 4.1 6.8 1.8 13.5 5.3 20.7 4.1 9.2-1.6 17.5-4 26.9-3.6 9.2.3 18.2 2.3 26.8 5.6 1.3.6 3.3-1.5 1.8-2.1zm-8.5 48.8c-9.7-5.5-20.4-8.9-31.6-9.6-6.1-.4-11.9.3-17.6-2.3-5.3-2.4-10.3-5.5-15.5-8.1-20.7-10.4-44.1-18.3-67.2-12.1-1 .3-2.5 2.3-.6 1.8 24.4-6.5 49.1 3.5 70.4 14.7 4.5 2.3 8.9 5.3 13.8 6.9 4.3 1.4 8.8.9 13.3 1.1 11.6.4 22.8 3.8 32.9 9.6.6.3 2.9-1.5 2.1-2z" class="B"/><path d="M246.1 96.6c-12.5-22.4-27.8-43.4-46.7-60.9-4.6-4.3-9.5-8.3-14.5-12.1a117.4 117.4 0 0 0-8.1-5.7c-3.9-2.6-7-5.4-4.4-10.5 3.3-6.7 9.4-12.7 13.8-18.8a467.81 467.81 0 0 0 12.5-18.7c1-1.7-1.4-1.9-2.2-.7-4.3 6.9-8.8 13.6-13.6 20.3-4.2 5.8-9.8 11.5-13 17.9-2.5 5.1-1.1 8.6 3.4 11.7 5.7 3.9 11.2 7.8 16.5 12.2 22.2 18.5 39.7 41.9 53.8 67 .6 1 3.2-.5 2.5-1.7zm234.4 206.9c6.4-21.4 26.7-32.6 46.2-40.2.1 0-1.3-2.6-1.8-2.4-19.6 7.5-39.8 18.7-46.2 40.2-.2.8 1.9 2.2 1.8 2.4zm-1.5-6.4c-20.6-32.5-54.3-56.4-92.2-63.2-1.8-.3-.8 2.3.4 2.5 37 6.6 69.8 29.6 89.9 61.3.8 1.4 2.9 1.1 1.9-.6zm-2.3 4.9c19.2 28.4 37.7 58.7 41 93.6.1.7 2.7 1.7 2.7 1.1-3.3-35-21.9-65.4-41.2-93.9-.3-.6-2.9-1.5-2.5-.8zM49.4 1.5c66 21.7 127.7 56.5 179.3 103.3 1 .9 3.7-.2 2.5-1.3-51.9-47.1-114-82.1-180.4-104-1.5-.5-3.3 1.4-1.4 2z" class="B"/><path d="M85.5 14.6c15.8 11.3 35.6 2.7 53 7.6 10.1 2.9 14.2 12.5 23.1 17.4 5.4 2.9 9.2 7.1 14.2 10.5 3 2 6.1 3.2 9.7 2.8 1.3-.1-.7-2.3-1.6-2.2-6.9.7-10.9-5.3-15.8-9-4-3-8.9-4.4-12.5-8-2.9-2.9-4.9-6.4-8.2-8.9-2.6-2-5.5-3.4-8.5-4.4-17.2-5.6-37.6 3.6-53.1-7.5-1.7-1-1.4.9-.3 1.7z" class="B"/><path d="M139.5 22.2c4.4.1 8.7-.6 12.8-2.2 1.8-.7-.1-2.3-1.5-1.8-3.7 1.4-7.4 2.1-11.3 2-1.8 0-1.9 1.9 0 2zm247.6 230c11.2 9 25.1 14.2 35.5 24.3 7 6.7 12.9 14.5 19 22 5.6 7 11 14.2 15.9 21.8 13.3 20.4 24.7 41.8 36.4 63.2.3.5 1.5 1.7 1.8.6 2.8-9.8 6.4-19.4 11.8-28.1 3.9-6.3 9.3-13.5 17-15.2 1.4-.3.3-3.1-.8-2.8-7.6 1.7-13 8.1-17 14.3-5.9 9.1-9.9 19.4-12.9 29.8l1.8.6c-9.6-17.5-18.9-35.3-29.4-52.3-6-9.7-12.3-19.3-19.3-28.3-8.6-11.1-17.5-23.4-28.6-32.2-9.7-7.6-21.3-12.5-30.9-20.2-1.4-1.1-1.2 1.8-.3 2.5z" class="B"/><path d="M207.6 18.9c-10.4 79.1 7.3 157.4 10.1 236.3l1.4 71.3c.1 1.6 2.9.6 2.8-.8-.8-20.8-.6-41.6-1.1-62.4-.5-20.1-2.1-40.1-4.1-60-3.8-39.1-8.5-78.2-9.4-117.4-.5-22.4.2-44.8 3.2-67.1.2-1.8-2.7-1.3-2.9.1z"/><ellipse cx="220.4" cy="364.5" rx="33.2" ry="39.3"/><ellipse cx="220.4" cy="393.8" rx="18.4" ry="26.5"/><path d="M192.7 376.6s-23.1-1.3-35.4 0-35.2 28-37 34.3-1.8 32.5-1.8 32.5 3.6-26 7.4-31.1c5.3-7.2 22.7-25.6 29.7-28 9.4-3.3 38 .7 38 .7l-.9-8.4zm5.6-12.2s-24.1-8.5-37.7-10.9-46 19-49.9 25.1c-3.8 6.1-11.9 34-11.9 34s11.9-26.6 17.4-30.9c7.8-6 32-20.2 40.2-20.7 11-.6 40.2 12.4 40.2 12.4l1.7-9zm-5.9-14.3s-22.2-12.7-32.8-21.5c-10.6-8.7-15.6-47.3-13.5-54.2s18-31.2 18-31.2-12.4 26.3-12 33.4c.5 9.9 5.5 37.4 10.5 44 6.7 8.7 35.6 22.4 35.6 22.4l-5.8 7.1zm13.4-12.5s-16.7-22.8-22.6-37.3-1.5-47.8 1.3-56.4 16.1-22.6 16.1-22.6-10.8 18.5-12.3 25.4-2.6 40.2 1 50.8c3.6 10.7 23.9 35.9 23.9 35.9l-7.4 4.2zm42.2 39s23.1-1.3 35.4 0 35.2 28 37 34.3 1.8 32.5 1.8 32.5-3.6-26-7.4-31.1c-5.3-7.2-22.7-25.6-29.7-28-9.4-3.3-38 .7-38 .7l.9-8.4zm-5.6-12.2s24.1-8.5 37.7-10.9 46 19 49.9 25.1c3.8 6.1 11.9 34 11.9 34S330 386 324.4 381.8c-7.8-6-32-20.2-40.2-20.7-11-.6-40.2 12.4-40.2 12.4l-1.6-9.1zm5.9-14.3s22.2-12.7 32.8-21.5c10.6-8.7 15.6-47.3 13.5-54.2s-18-31.2-18-31.2 12.4 26.3 12 33.4c-.5 9.9-5.5 37.4-10.5 44-6.7 8.7-35.6 22.4-35.6 22.4l5.8 7.1zm-13.4-12.5s16.7-22.8 22.6-37.3 1.5-47.8-1.3-56.4-16.1-22.6-16.1-22.6 10.8 18.5 12.3 25.4 2.6 40.2-1 50.8c-3.6 10.7-23.9 35.9-23.9 35.9l7.4 4.2zm-22.4 79s-2.3 3.5-1.3 6.3 5.8 5.7 5.8 5.7-2.6-3.4-3-5.5 3.7-5.8 3.7-5.8l-5.2-.7zm15.8 0s2.3 3.5 1.3 6.3-5.8 5.7-5.8 5.7 2.6-3.4 3-5.5-3.7-5.8-3.7-5.8l5.2-.7z"/><g fill="#e30613"><circle cx="216.3" cy="416.6" r="1.4"/><circle cx="224.4" cy="416.6" r="1.4"/></g></g><text style="white-space:pre" transform="translate(31.335 -13.624)" fill="#333" font-family="Arial, sans-serif" font-size="33" font-style="italic" font-weight="700"><tspan fill="#000"></tspan><tspan x="205.382" dy="1em">​</tspan><tspan fill="#000">about web projects</tspan></text></svg>