<svg xmlns="http://www.w3.org/2000/svg" xmlns:xlink="http://www.w3.org/1999/xlink" viewBox="0 0 450 208" xmlns:v="https://vecta.io/nano"><style><![CDATA[.B{opacity:.8}.C{fill:#fff}.D{fill:url(#J)}.E{stroke:url(#K)}.F{stroke-width:1.002}.G{stroke-dashoffset:1.20000057}.H{fill-rule:evenodd}.I{font-family:Arial, sans-serif}]]></style><defs><radialGradient id="A" cx="29.481" cy="36.777" r="18.5" gradientTransform="matrix(2.012905,0,0,1.338879,-28.886641,-12.681567)" xlink:href="#Y"><stop offset="0" stop-color="#fff"/><stop offset="1" stop-color="#eeeeec"/></radialGradient><linearGradient id="B" x1="5.657" y1="53.321" x2="4" y2="16.004" xlink:href="#Y"><stop offset="0" stop-color="#2e3436"/><stop offset="1" stop-color="#888a85"/></linearGradient><radialGradient id="C" gradientTransform="matrix(1,0,0,2.166667,0,-46.08333)" cx="6" cy="39.5" r="3" xlink:href="#D"/><linearGradient id="D" xlink:href="#Y"><stop offset="0"/><stop offset="1" stop-opacity="0"/></linearGradient><radialGradient id="E" gradientTransform="matrix(1,0,0,2.166667,-45,-125.0833)" cx="6" cy="39.5" r="3" xlink:href="#D"/><linearGradient id="F" x1="18" y1="46" x2="18" y2="32.999" xlink:href="#Y"><stop offset="0" stop-opacity="0"/><stop offset=".5"/><stop offset="1" stop-opacity="0"/></linearGradient><radialGradient id="G" cx="37.375" cy="33.188" r="14.625" gradientTransform="matrix(1,0,0,0.226496,0,25.67067)" xlink:href="#Y"><stop offset="0"/><stop offset="1" stop-opacity="0"/></radialGradient><linearGradient id="H" x1="9.95" y1="38.027" x2="92.365" y2="48.801" xlink:href="#Y"><stop offset="0" stop-color="#d3d7cf"/><stop offset="1" stop-color="#d3d7cf" stop-opacity="0"/></linearGradient><linearGradient id="I" x1="6.793" y1="32.963" x2="7.922" y2="54.449" xlink:href="#Y"><stop offset="0" stop-color="#fff"/><stop offset="1" stop-color="#fff" stop-opacity="0"/></linearGradient><radialGradient id="J" gradientTransform="matrix(9.835652,1.854444e-6,0,1.136384,-108.6942,-1.914856)" cx="12.322" cy="11.669" r="1.5" xlink:href="#Y"><stop offset="0" stop-color="#fff"/><stop offset="1" stop-color="#d3d7cf"/></radialGradient><linearGradient id="K" x1="11.669" y1="6.728" x2="11.581" y2="14.663" xlink:href="#Y"><stop offset="0" stop-color="#555753"/><stop offset=".5" stop-color="#cccdcb"/><stop offset="1" stop-color="#555753"/></linearGradient><radialGradient r="10.875" cy="44.063" cx="24.875" gradientTransform="matrix(1,0,0,0.3390805,0,29.121767)" id="L" xlink:href="#Y"><stop offset="0" stop-color="#888a85"/><stop offset="1" stop-color="#888a85" stop-opacity="0"/></radialGradient><linearGradient y2="54.283" x2="30.573" y1="37.488" x1="21.213" id="M" xlink:href="#Y"><stop offset="0" stop-color="#fff"/><stop offset="1" stop-color="#fff" stop-opacity="0"/></linearGradient><radialGradient r="9.418" cy="15.473" cx="21.427" gradientTransform="matrix(1.0564455,2.2729667e-3,-3.721177e-3,1.5139708,-13.503269,-19.183025)" id="N" xlink:href="#Y"><stop offset="0" stop-color="#fff" stop-opacity=".534"/><stop offset="1" stop-opacity=".078"/></radialGradient><linearGradient y2="31.218" x2="14.147" y1="15.582" x1="11.295" id="O" xlink:href="#Y"><stop offset="0" stop-color="#888a85"/><stop offset="1" stop-color="#888a85" stop-opacity="0"/></linearGradient><linearGradient y2="28.106" x2="14.871" y1=".173" x1="4.677" id="P" xlink:href="#Y"><stop offset="0" stop-color="#fff"/><stop offset="1" stop-color="#fff" stop-opacity=".476"/></linearGradient><linearGradient y2="16.572" x2="11.306" y1="10.307" x1="8.778" id="Q" xlink:href="#Y"><stop offset="0" stop-color="#e40000" stop-opacity=".592"/><stop offset="1" stop-color="#700"/></linearGradient><linearGradient y2="16.572" x2="11.306" y1="10.307" x1="8.778" id="R" xlink:href="#Y"><stop offset="0" stop-color="#a40000"/><stop offset="1" stop-color="#680000"/></linearGradient><linearGradient y2="17.255" x2="10.545" y1="10.329" x1="8.794" id="S" xlink:href="#Y"><stop offset="0" stop-color="#eeeeec"/><stop offset="1" stop-color="#eeeeec" stop-opacity="0"/></linearGradient><radialGradient r="1.688" cy="19.25" cx="69.188" gradientTransform="matrix(1,0,0,0.962963,0,0.712963)" id="T" xlink:href="#Y"><stop offset="0" stop-color="#ff0f0f"/><stop offset="1" stop-color="#ff0f0f" stop-opacity="0"/></radialGradient><linearGradient y2="18.934" x2="12.287" y1="4.178" x1="5.274" id="U" xlink:href="#Y"><stop offset="0" stop-color="#fff"/><stop offset="1" stop-color="#fff" stop-opacity="0"/></linearGradient><linearGradient y2="14.182" x2="15.788" y1="-2.574" x1="4.038" id="V" xlink:href="#Y"><stop offset="0" stop-color="#fff"/><stop offset="1" stop-color="#fff" stop-opacity="0"/></linearGradient><path id="W" d="M12.734 12.997c0 1.106-.892 2.003-1.992 2.003s-1.992-.897-1.992-2.003.892-2.003 1.992-2.003 1.992.897 1.992 2.003z"/><path id="X" d="M12.5 11.148c0 .358-.266.648-.594.648s-.594-.29-.594-.648.266-.648.594-.648.594.29.594.648z"/><linearGradient id="Y" gradientUnits="userSpaceOnUse"/></defs><g transform="matrix(3.766012 0 0 3.766012 16.962204 5.43707)"><path d="M 8.2682654,10.523771 L 36.732709,10.523771 C 37.712052,10.523771 38.429497,11.276446 38.500476,12.291538 L 40.437976,40.000423 L 40.500499,43.500423 L 4.5004984,43.500423 L 4.5004984,40.000423 L 6.5004984,12.291538 C 6.5705734,11.320687 7.2889224,10.523771 8.2682654,10.523771 z" fill="url(#A)" stroke="url(#B)" stroke-linejoin="round"/><g transform="matrix(1.041668 0 0 .457934 -.937003 24.41205)" opacity=".4"><path d="M3 33h3v13H3z" opacity="1" fill="url(#C)"/><path transform="scale(-1)" d="M-42-46h3v13h-3z" opacity="1" fill="url(#E)"/><path d="M6 33h33v13H6z" opacity="1" fill="url(#F)"/></g><path d="M 52,33.1875 A 14.625,3.3125 0 1 1 22.75,33.1875 A 14.625,3.3125 0 1 1 52,33.1875 z" transform="matrix(.897436 0 0 .981132 1.333831 1.689102)" opacity=".07" fill="url(#G)"/><g class="C"><use xlink:href="#W"/><use xlink:href="#W" x="4"/><use xlink:href="#W" x="8"/><use xlink:href="#W" x="12"/><use xlink:href="#W" x="16"/><use xlink:href="#W" x="20"/><use xlink:href="#W" x="24"/></g><path d="M5 40h35v3.01H5z" fill="url(#H)"/><path d="M 8.28125,11.5 C 7.8175892,11.5 7.5065211,11.820452 7.46875,12.34375 L 5.46875,40 L 5.46875,40.0625 L 5.46875,42.53125 L 39.5,42.53125 L 39.46875,40.0625 L 39.46875,40.03125 L 37.53125,12.34375 C 37.490391,11.75941 37.211695,11.5 36.71875,11.5 L 8.28125,11.5 z" fill="none" stroke="url(#I)"/><g transform="translate(-2 -1)"><rect ry="1.507" rx=".999" y="9.501" x="11.501" height="5.044" width="1.998" class="D E F G"/><use xlink:href="#X" class="C"/></g><g opacity=".6" fill="#888a85"><rect rx=".5" y="17" x="31" height="1" width="5" class="B"/><rect rx=".5" y="19" x="8.875" height="1" width="2.125" class="B"/><rect ry=".5" rx=".461" y="35" x="7.828" height="1" width="4.172" class="B"/><rect rx=".5" y="22" x="8.609" height="1" width="8.391" class="B"/><rect ry=".5" rx=".495" y="24" x="8.484" height="1" width="3.516" class="B"/><rect rx=".5" y="32" x="33" height="1" width="4" class="B"/><rect rx=".5" y="35" x="21" height="1" width="3" class="B"/><rect ry=".5" rx=".542" y="22" x="30" height="1" width="5" class="B"/><rect rx=".5" y="27" x="8.359" height="1" width="2.641" class="B"/><rect rx=".5" y="17" x="9" height="1" width="6" class="B"/><rect rx=".5" y="17" x="21" height="1" width="5" class="B"/><rect rx=".5" y="17" x="28" height="1" width="2" class="B"/><rect rx=".5" y="17" x="16" height="1" width="2" class="B"/><rect rx=".5" y="17" x="19" height="1" width="2" class="B"/><rect ry=".5" rx=".542" y="19" x="12" height="1" width="4" class="B"/><rect ry=".5" rx=".542" y="19" x="17" height="1" width="2" class="B"/><rect ry=".5" rx=".542" y="19" x="20" height="1" width="4" class="B"/><rect ry=".5" rx=".542" y="22" x="19" height="1" width="4" class="B"/><rect ry=".5" rx=".542" y="22" x="23" height="1" width="2" class="B"/><rect ry=".5" rx=".542" y="22" x="26" height="1" width="3" class="B"/><rect ry=".5" rx=".542" y="24" x="13" height="1" width="2" class="B"/><rect ry=".5" rx=".542" y="24" x="16" height="1" width="4" class="B"/><rect ry=".5" rx=".542" y="24" x="20" height="1" width="2" class="B"/><rect ry=".5" rx=".542" y="24" x="24" height="1" width="2" class="B"/><rect ry=".5" rx=".542" y="27" x="12" height="1" width="2" class="B"/><rect ry=".5" rx=".542" y="27" x="14" height="1" width="4" class="B"/><rect ry=".5" rx=".542" y="27" x="19" height="1" width="2" class="B"/><rect ry=".5" rx=".542" y="35" x="13" height="1" width="6" class="B"/><rect rx=".5" y="32" x="8" height="1" width="2" class="B"/><rect ry=".5" rx=".542" y="32" x="11" height="1" width="4" class="B"/><rect ry=".5" rx=".542" y="32" x="17" height="1" width="5" class="B"/><rect ry=".5" rx=".542" y="32" x="23" height="1" width="4" class="B"/><rect ry=".5" rx=".542" y="32.004" x="28.008" height="1" width="4" class="B"/></g><g transform="translate(2 -1)"><rect ry="1.507" rx=".999" y="9.501" x="11.501" height="5.044" width="1.998" class="D E F G"/><use xlink:href="#X" class="C"/></g><g transform="translate(6 -1)"><rect ry="1.507" rx=".999" y="9.501" x="11.501" height="5.044" width="1.998" class="D E F G"/><use xlink:href="#X" class="C"/></g><g transform="translate(10 -1)"><rect ry="1.507" rx=".999" y="9.501" x="11.501" height="5.044" width="1.998" class="D E F G"/><use xlink:href="#X" class="C"/></g><g transform="translate(14 -1)"><rect ry="1.507" rx=".999" y="9.501" x="11.501" height="5.044" width="1.998" class="D E F G"/><use xlink:href="#X" class="C"/></g><g transform="translate(18 -1)"><rect ry="1.507" rx=".999" y="9.501" x="11.501" height="5.044" width="1.998" class="D E F G"/><use xlink:href="#X" class="C"/></g><g transform="translate(22 -1)"><rect ry="1.507" rx=".999" y="9.501" x="11.501" height="5.044" width="1.998" class="D E F G"/><use xlink:href="#X" class="C"/></g><g transform="translate(25.187 14.22)"><path d="M 35.75,44.0625 A 10.875,3.6875 0 1 1 14,44.0625 A 10.875,3.6875 0 1 1 35.75,44.0625 z" transform="matrix(1.008754 0 0 .648045 -14.122549 -.944134)" opacity=".326" fill="url(#L)"/><path d="M16.524 27.79c0 .581-1 1.119-2.622 1.41a15.88 15.88 0 0 1-5.245 0c-1.623-.291-2.622-.828-2.622-1.41s1-1.119 2.622-1.41a15.88 15.88 0 0 1 5.245 0c1.623.291 2.622.828 2.622 1.41z" fill="#d3d7cf" stroke="#888a85" stroke-width="1.003"/><path d="M 31.091041,44.155106 A 7.0494113,1.5903722 0 1 1 16.992218,44.155106 A 7.0494113,1.5903722 0 1 1 31.091041,44.155106 z" transform="matrix(.585594 0 0 .390953 -2.796397 10.540547)" fill="none" stroke="url(#M)" stroke-width="2.09"/><path d="M 8.7346695,27.577522 C 11.161046,28.378477 12.301887,27.989866 13.830855,27.755413 C 13.830855,27.755413 11.095928,28.758646 11.13728,21.432213 C 11.160725,17.278343 12.751082,16.291201 16.508852,12.380844 C 19.109267,9.6748376 15.014874,1.9720666 15.014874,1.9720666 C 12.402925,2.4392546 9.9062065,2.4751916 6.8333235,2.0798796 C 6.8333235,2.0798796 3.8131675,9.7621726 6.0266915,12.429875 C 9.4260685,16.526747 11.225015,15.428925 11.378111,21.527227 C 11.539074,27.938829 10.242774,27.441434 8.7346695,27.577522 z" fill="url(#N)" stroke="url(#O)" class="H"/><g fill="none"><path d="M15.165 1.648c0 .347-.799.668-2.097.842s-2.897.174-4.195 0-2.097-.495-2.097-.842S7.575.98 8.873.806s2.897-.174 4.195 0 2.097.495 2.097.842z" stroke="#888a85"/><path d="M 15.809406,12.052016 C 17.36326,9.9087646 14.602587,3.2653536 14.602587,3.2653536 C 12.319902,3.7109156 10.196487,3.5302826 7.5109745,3.1532686 C 7.5109745,3.1532686 5.1829035,9.9790876 6.6486385,12.023307 C 9.5087932,16.012284 12.902044,16.153222 11.248233,17.421732 C 11.058885,17.566965 12.89264,16.07515 15.809406,12.052016 z" opacity=".674" stroke="url(#P)"/></g><g class="H"><path d="M 5.3056345,10.875936 C 5.3866185,11.741837 6.6511525,13.180397 7.8642945,14.488041 C 9.6635235,16.427425 10.15944,16.991246 11.301298,16.970917 C 12.771199,16.983623 14.041846,14.760953 15.751154,13.189665 C 16.884775,12.147581 17.262725,10.761583 17.262725,10.761583 C 17.262725,10.761583 15.525415,9.6275396 11.235224,9.6303336 C 7.3479855,9.6328646 6.1271135,10.723466 5.3056345,10.875936 z" fill="url(#Q)" stroke="url(#R)"/><path d="M5.777 11.07s2.48-1.105 5.911-1.105c3.195 0 5.189.904 5.189.904s-.307 1.4-5.637 1.361c-6.369-.045-5.372-1.237-5.463-1.161z" opacity=".368" fill="url(#S)"/></g><path d="M 70.875,19.25 A 1.6875,1.625 0 1 1 67.5,19.25 A 1.6875,1.625 0 1 1 70.875,19.25 z" transform="matrix(.645306 0 0 .60375 -35.330477 2.036755)" opacity=".549" fill="url(#T)"/><path d="M 6.5767175,11.40842 C 6.6468845,12.144055 7.5726155,12.763456 8.6237245,13.874376 C 10.182639,15.521998 10.279494,16.06734 11.268839,16.050069 C 12.542412,16.060864 13.143344,14.209117 14.624349,12.874215 C 15.606558,11.988903 16.082082,11.225352 16.082082,11.225352 C 16.082082,11.225352 15.049376,10.585444 11.332204,10.587817 C 7.9641655,10.589967 7.2884755,11.278888 6.5767175,11.40842 z" fill="none" stroke="url(#U)"/><path d="M6.973 13.312s-2.655-3.813.09-9.762c.437-.946.149-.867.149-.867s2.753.409 4.433.383c1.724-.026 3.106-.342 3.106-.342s1.07 2.117 1.228 3.293c.114.854.941 4.194.941 4.194s-2.658.477-5.766-.179c-3.337-.705-4.009 3.227-4.18 3.28z" fill="url(#V)" class="H"/></g></g><text style="white-space:pre" x="261.628" y="110.32" fill="#333" font-size="41" font-style="italic" font-weight="700" class="I">Blog</text></svg>