<svg xmlns="http://www.w3.org/2000/svg" viewBox="0 0 450 208" xmlns:v="https://vecta.io/nano"><style><![CDATA[.B{stroke-width:13.196}.C{stroke-linejoin:round}]]></style><g transform="matrix(.982935 0 0 .982935 3.314006 45.868149)"><g fill="#036"><path d="M82.419 82.118l-7.235 4.413-21.55-11.214c-8.039-3.523-12.057-7.885-12.057-13.084 0-2.771 1.026-6.573 3.079-8.489 2.087-1.915 4.601-2.873 7.542-2.873 4.207 0 7.902 1.42 11.083 4.259 3.147 2.839 4.72 6.14 4.72 9.902 0 .274-.068 1.214-.205 2.822l-.051 1.18c-.068.753-.103 1.317-.103 1.693 0 2.463 1.95 4.584 5.849 6.362a37.25 37.25 0 0 1 2.001 1.078l6.927 3.951m-10.573 9.647l52.576-32.21c.992-.137 4.454-1.646 8.586-2.367 4.65-.811 9.029-.861 13.647 1.021L85.033 93.971c-1.916 1.129-3.233 1.83-3.951 2.104l-1.129.41c-2.942 1.095-4.413 3.061-4.413 5.901v.462l.103 1.283.154 2.514c.239 4.652-2.275 9.167-7.542 13.545-5.268 4.413-10.809 6.619-16.624 6.619-2.942 0-5.353-.735-7.235-2.206-1.881-1.505-5.741-6.322-5.741-8.614 0-2.976 2.925-6.294 8.774-9.954 0 0 24.486-13.79 24.417-14.27m16.674 3.233l7.902-4.72 50.232 28.836c-4.207 1.71-6.065 1.485-9.896 1.485-1.539 0-6.441.584-10.021-.771L88.52 94.998"/><path d="M52.179 68.363l2.195 1.075c1.971.926 3.569 1.389 4.793 1.389 2.389 0 3.584-1.672 3.584-5.017 0-2.449-1.105-4.704-3.315-6.765s-4.644-3.091-7.302-3.091c-1.583 0-2.957.553-4.121 1.658-1.135 1.105-1.702 2.419-1.702 3.942 0 2.539 1.956 4.808 5.869 6.809m-3.124 42.536c-3.592 2.258-4.307 4.585-4.307 6.261 0 1.368.547 2.394 1.642 3.079s2.736 1.026 4.926 1.026c4.515 0 8.945-1.762 13.289-5.285s6.516-7.115 6.516-10.775c0-2.463-3.599-3.334-5.754-3.334m19.613-10.617c1.676 0 2.514-.804 2.514-2.412s-.838-2.411-2.514-2.412c-1.642 0-2.463.804-2.463 2.412s.821 2.412 2.463 2.412"/></g><g transform="matrix(.72973 0 0 .72973 344.48 -241.24)"><path d="M-359.12 440.04l-9.914 6.047-29.531-15.367c-11.016-4.828-16.523-10.805-16.523-17.93 0-3.797 1.406-9.008 4.219-11.633 2.859-2.625 6.305-3.937 10.336-3.937 5.766 0 10.828 1.945 15.188 5.836 4.312 3.891 6.469 8.414 6.469 13.57 0 .375-.094 1.664-.281 3.867l-.07 1.617c-.094 1.031-.141 1.805-.141 2.32 0 3.375 2.672 6.281 8.016 8.719.937.469 1.851.961 2.742 1.477l9.492 5.414m-14.492 13.22l72.048-44.14c1.359-.187 6.104-2.256 11.766-3.243 6.372-1.111 12.373-1.179 18.702 1.399l-84.445 49.008c-2.625 1.547-4.43 2.508-5.414 2.883l-1.547.563c-4.031 1.5-6.047 4.195-6.047 8.086v.633l.141 1.758.211 3.445c.328 6.375-3.117 12.562-10.336 18.562-7.219 6.047-14.812 9.07-22.781 9.07-4.031 0-7.336-1.008-9.914-3.023-2.578-2.062-7.867-8.664-7.867-11.805 0-4.078 4.008-8.625 12.023-13.641 0 0 33.555-18.898 33.461-19.555m22.849 4.43l10.828-6.469 68.836 39.516c-5.766 2.344-8.311 2.035-13.561 2.035-2.11 0-8.826.8-13.732-1.056l-52.371-34.025"/><path d="M-400.56 421.19l3.008 1.473c2.701 1.269 4.891 1.903 6.569 1.903 3.274 0 4.911-2.292 4.911-6.876 0-3.356-1.514-6.446-4.543-9.27s-6.364-4.236-10.007-4.236c-2.169 0-4.052.757-5.648 2.271-1.555 1.514-2.333 3.315-2.333 5.402 0 3.479 2.681 6.589 8.042 9.331m-4.279 58.282c-4.922 3.094-5.902 6.283-5.902 8.58 0 1.875.75 3.281 2.25 4.219s3.75 1.406 6.75 1.406c6.188 0 12.258-2.414 18.211-7.242s8.93-9.75 8.93-14.766c0-3.375-4.933-4.569-7.885-4.569" fill="#fff"/><path d="M-355.61 452.55c2.297 0 3.445-1.101 3.445-3.305s-1.149-3.305-3.445-3.305c-2.25 0-3.375 1.102-3.375 3.305s1.125 3.305 3.375 3.305"/></g></g><g transform="matrix(.140364 0 0 .150224 256.557682 26.627323)" stroke="#000"><path d="M23.495 331.59h1010.2v692.96H23.495z" class="B"/><g fill="#fff" class="C"><g class="B"><rect x="902.941" y="374.52" width="105.71" height="65.714" ry="18.183"/><rect x="902.001" y="482.5" width="105.71" height="65.714" ry="18.183"/><rect x="902.471" y="591.71" width="105.71" height="65.714" ry="18.183"/><rect x="901.261" y="700.61" width="105.71" height="65.714" ry="18.183"/><rect x="900.001" y="809.77" width="105.71" height="65.714" ry="18.183"/><rect x="899.981" y="917.87" width="105.71" height="65.714" ry="18.183"/><rect x="49.64" y="374.23" width="105.71" height="65.714" ry="18.183"/><rect x="48.693" y="482.21" width="105.71" height="65.714" ry="18.183"/><rect x="49.166" y="591.42" width="105.71" height="65.714" ry="18.183"/><rect x="47.952" y="700.32" width="105.71" height="65.714" ry="18.183"/><rect x="46.693" y="809.48" width="105.71" height="65.714" ry="18.183"/><rect x="46.673" y="917.59" width="105.71" height="65.714" ry="18.183"/></g><rect x="177.06" y="367.96" width="703.07" height="622.25" ry="19.193" stroke-width="11.4"/></g></g><text style="white-space:pre" x="299.668" y="49.06" fill="#1c9f07" font-family="Arial, sans-serif" font-size="28" font-weight="700">FastAds</text></svg>