<?xml version="1.0" encoding="UTF-8"?>
<svg xmlns="http://www.w3.org/2000/svg" xmlns:xlink="http://www.w3.org/1999/xlink" width="150px" height="150px" viewBox="0 0 150 150" version="1.1">
<g id="surface1">
<path style=" stroke:none;fill-rule:nonzero;fill:rgb(100%,81.960784%,9.019608%);fill-opacity:1;" d="M 34.144531 72.78125 C 34.523438 72.78125 34.910156 72.691406 35.269531 72.503906 C 36.46875 71.878906 36.933594 70.402344 36.3125 69.207031 L 23.828125 45.222656 C 23.40625 44.414062 22.570312 43.90625 21.660156 43.90625 L 13.144531 43.90625 C 11.792969 43.90625 10.699219 45 10.699219 46.351562 C 10.699219 47.699219 11.792969 48.796875 13.144531 48.796875 L 20.175781 48.796875 L 31.976562 71.464844 C 32.410156 72.300781 33.261719 72.78125 34.144531 72.78125 Z M 34.144531 72.78125 "/>
<path style=" stroke:none;fill-rule:nonzero;fill:rgb(100%,81.960784%,9.019608%);fill-opacity:1;" d="M 115.421875 72.78125 C 115.042969 72.78125 114.65625 72.691406 114.296875 72.503906 C 113.097656 71.878906 112.632812 70.402344 113.257812 69.207031 L 125.742188 45.222656 C 126.160156 44.414062 126.996094 43.90625 127.910156 43.90625 L 136.421875 43.90625 C 137.773438 43.90625 138.867188 45 138.867188 46.351562 C 138.867188 47.699219 137.773438 48.796875 136.421875 48.796875 L 129.390625 48.796875 L 117.59375 71.464844 C 117.15625 72.300781 116.304688 72.78125 115.421875 72.78125 Z M 115.421875 72.78125 "/>
<path style=" stroke:none;fill-rule:nonzero;fill:rgb(100%,70.196078%,40.392157%);fill-opacity:1;" d="M 111.683594 34.839844 C 110.027344 31.660156 105.738281 29.058594 102.15625 29.058594 L 47.414062 29.058594 C 43.828125 29.058594 39.542969 31.660156 37.886719 34.839844 L 25.402344 58.824219 L 32.253906 75.117188 L 117.3125 75.117188 L 124.164062 58.824219 Z M 111.683594 34.839844 "/>
<path style=" stroke:none;fill-rule:nonzero;fill:rgb(100%,100%,100%);fill-opacity:1;" d="M 34.515625 71.117188 L 115.050781 71.117188 L 119.347656 60.15625 L 107.347656 37.097656 C 106.535156 35.539062 103.914062 33.949219 102.15625 33.949219 L 47.414062 33.949219 C 45.652344 33.949219 43.035156 35.539062 42.222656 37.097656 L 30.21875 60.15625 Z M 34.515625 71.117188 "/>
<path style=" stroke:none;fill-rule:nonzero;fill:rgb(5.490196%,3.921569%,34.117647%);fill-opacity:1;" d="M 5.046875 107.824219 L 30.761719 107.824219 L 30.761719 120.941406 L 5.046875 120.941406 Z M 5.046875 107.824219 "/>
<path style=" stroke:none;fill-rule:nonzero;fill:rgb(5.490196%,3.921569%,34.117647%);fill-opacity:1;" d="M 118.804688 107.824219 L 144.519531 107.824219 L 144.519531 120.941406 L 118.804688 120.941406 Z M 118.804688 107.824219 "/>
<path style=" stroke:none;fill-rule:nonzero;fill:rgb(100%,81.960784%,9.019608%);fill-opacity:1;" d="M 133.925781 56.128906 L 115.050781 61.339844 L 34.515625 61.339844 L 15.640625 56.128906 C 6.664062 56.128906 -0.363281 63.457031 0.015625 72.421875 L 21.105469 79.601562 L 0.617188 84.492188 L 1.789062 107.824219 L 147.78125 107.824219 L 148.949219 84.492188 L 128.460938 79.601562 L 149.554688 72.421875 C 149.929688 63.457031 142.90625 56.128906 133.925781 56.128906 Z M 133.925781 56.128906 "/>
<path style=" stroke:none;fill-rule:nonzero;fill:rgb(100%,43.921569%,22.352941%);fill-opacity:1;" d="M 150 72.421875 C 150 72.433594 150 72.445312 150 72.460938 L 149.398438 84.492188 L 119.132812 84.492188 C 119.132812 77.828125 124.535156 72.421875 131.203125 72.421875 Z M 150 72.421875 "/>
<path style=" stroke:none;fill-rule:nonzero;fill:rgb(100%,43.921569%,22.352941%);fill-opacity:1;" d="M 30.882812 84.492188 L 0.617188 84.492188 L 0.015625 72.460938 C 0.015625 72.445312 0.015625 72.433594 0.015625 72.421875 L 18.8125 72.421875 C 25.480469 72.421875 30.882812 77.828125 30.882812 84.492188 Z M 30.882812 84.492188 "/>
<path style=" stroke:none;fill-rule:nonzero;fill:rgb(100%,94.117647%,69.803922%);fill-opacity:1;" d="M 47.675781 91.515625 L 101.890625 91.515625 L 101.890625 102.9375 L 47.675781 102.9375 Z M 47.675781 91.515625 "/>
<path style=" stroke:none;fill-rule:nonzero;fill:rgb(100%,70.196078%,40.392157%);fill-opacity:1;" d="M 88.335938 84.492188 L 61.230469 84.492188 C 59.878906 84.492188 58.785156 83.398438 58.785156 82.046875 C 58.785156 80.699219 59.878906 79.601562 61.230469 79.601562 L 88.335938 79.601562 C 89.6875 79.601562 90.78125 80.699219 90.78125 82.046875 C 90.78125 83.398438 89.6875 84.492188 88.335938 84.492188 Z M 88.335938 84.492188 "/>
</g>
</svg>
