<svg xmlns="http://www.w3.org/2000/svg" viewBox="0 0 450 208" xmlns:v="https://vecta.io/nano"><path fill="#55acee" d="M175.858 49.837c-5.715 2.54-12.064 4.445-18.414 5.08 6.667-4.127 11.747-10.159 14.287-17.779-6.35 3.81-13.017 6.35-20.319 7.937-5.715-6.35-14.287-10.159-23.493-10.159-17.779 0-32.383 14.287-32.383 32.383 0 2.54.317 5.08.952 7.302-26.986-1.27-50.797-14.287-66.671-33.653-2.857 4.762-4.445 10.159-4.445 16.191 0 11.112 5.715 20.954 14.287 26.986-5.397-.317-10.159-1.587-14.604-4.127v.317c0 15.556 11.112 28.573 26.033 31.748-2.857.317-5.715.635-8.572.635-2.222 0-4.127-.317-6.032-.635 4.127 12.699 16.191 22.224 30.16 22.541-11.112 8.572-25.081 13.652-40.002 13.652-2.54 0-5.08-.317-7.619-.317 14.287 9.207 31.113 14.604 49.527 14.604 59.369 0 91.751-49.209 91.751-91.751v-4.127c6.032-4.762 11.429-10.477 15.556-16.826z"/><path d="M211.988 120.906c-4.077-1.098-7.819-4.196-9.733-8.057-1.467-2.959-1.465-2.939-1.469-16.54-.174-11.766-.107-12.145.677-13.28 1.666-2.778 5.339-3.371 7.748-1.251 1.691 1.488 1.825 1.994 1.825 6.864v4.224h7.104c4.346 0 7.518.089 8.17.229 3.707.795 5.115 5.229 2.541 8.004a6.43 6.43 0 0 1-1.389 1.046c-.808.436-1.108.454-8.632.516l-7.795.064v1.884c0 2.74.284 3.636 1.556 4.907 1.485 1.485 1.881 1.555 8.843 1.56 5.401.004 5.886.035 6.76.431 3.316 1.501 4.142 5.497 1.697 8.209-1.429 1.585-1.523 1.601-9.439 1.592-6.178-.007-7.183-.054-8.465-.4zm31.636.09c-3.219-.78-6.541-3.226-8.572-6.311-1.871-2.843-2.236-4.843-2.246-12.314-.008-6.443.121-7.254 1.361-8.53 1.147-1.181 1.878-1.487 3.566-1.494 1.289-.005 1.614.077 2.505.628a5.42 5.42 0 0 1 1.658 1.657c.785 1.361.641 1.931.738 7.528.102 6.369.115 6.52.595 7.293 1.623 2.611 4.979 2.995 7.206.826 1.285-1.252 1.406-1.988 1.406-8.567 0-5.409.024-5.773.442-6.606.837-1.668 2.05-2.55 3.844-2.796 1.919-.263 3.989.868 4.981 2.722.442.826.468 1.166.568 7.265-.036 5.074.203 6.559.682 7.27 1.531 2.312 4.75 2.809 6.76 1.044 1.441-1.265 1.44-1.261 1.558-8.33.102-6.068.13-6.425.568-7.249 1.841-3.459 6.5-3.678 8.526-.399 1.31 1.817.737 5.661.737 8.14.095 3.262-.096 7.445-.667 8.735-1.552 4.38-5.009 7.859-9.167 9.227-1.886.62-6.043.769-7.916.283-1.806-.468-3.368-1.185-4.855-2.228l-1.248-.876-1.248.876c-1.509 1.059-3.037 1.776-4.707 2.209-1.556.404-5.4.402-7.074-.004zm43.459.031c-.953-.415-2.144-1.536-2.664-2.508-.455-.85-.458-.944-.458-11.633 0-10.286.019-10.814.411-11.604 1.63-3.286 5.837-4.026 8.388-1.474 1.587 1.587 1.582 1.547 1.514 13.417-.059 10.245-.068 10.454-.512 11.275-.584 1.081-1.646 2.091-2.627 2.5-.949.396-3.171.411-4.051.028zm21.959-.118c-4.652-1.219-8.701-4.894-10.411-9.448-.923-2.457-.996-3.709-.926-15.876.065-11.222.073-11.418.517-12.241 2.216-4.107 8.283-3.587 9.598.823.222.744.308 2.096.308 4.846v3.814l4.97.076c4.595.07 5.033.109 5.807.523 3.637 1.945 3.654 6.769.03 8.706-.812.434-1.179.468-5.854.533l-4.987.07.069 2.442c.081 2.85.406 3.704 1.819 4.788 1.238.949 2.018 1.104 5.574 1.108 2.853.003 3.235.048 4.197.496 4.019 1.871 4.015 7.538-.007 9.365-1.243.565-8.523.549-10.705-.023zm26.64.01c-5.269-1.441-9.596-5.868-10.96-11.215-.335-1.314-.373-2.641-.374-13.386.08-11.154-.474-10.717.571-13.013 1.203-2.281 3.685-3.286 6.313-2.556 1.096.304 2.939 2.148 3.243 3.243.127.456.227 2.597.228 4.845l.001 4.028h4.261c4.881 0 6.176.181 7.352 1.026 2.546 1.829 2.604 5.928.109 7.735-1.245.902-2.422 1.074-7.339 1.074h-4.384v1.895c0 2.496.287 3.546 1.274 4.668 1.347 1.53 1.847 1.676 6.171 1.802 3.764.109 3.789.113 4.813.745 1.172.724 2.257 2.323 2.467 3.64.305 1.905-.693 4.05-2.414 5.19l-.875.579-4.515.045c-3.854.039-4.724-.012-5.943-.345zm26.12.095c-3.059-.826-5.313-2.184-7.52-4.529-2.68-2.849-3.889-5.989-3.881-10.084.005-2.501.433-4.457 1.429-6.525 1.053-2.185 2.207-3.61 3.907-4.824 4.951-3.533 13.751-3.754 19.294-.484 1.984 1.17 4.048 3.385 5.053 5.424 2.033 4.123 1.828 7.858-.497 9.072-.805.42-1.18.439-9.678.496l-8.841.059v.549c0 .856 1.363 2.016 2.862 2.436 1.022.287 2.256.35 6.882.351 3.13 0 5.973.095 6.393.211 3.602 1.001 4.324 5.771 1.155 7.629-1.027.694-1.646.52-8.208.515-5.44-.01-7.573-.086-8.352-.296zm9.199-18.575c-.394-1.32-1.523-2.102-3.589-2.484-2.197-.406-5.268.503-5.861 1.734-.261.542-.51 1.159-.51 1.159s1.828.061 5.071.061h5.03zm15.791 18.482c-1.078-.586-2.227-1.947-2.5-2.963-.16-.594-.211-2.917-.159-7.179.077-6.207.086-6.326.65-8.02 1.486-4.461 5.459-8.16 10.08-9.387 1.699-.451 9.541-.667 11.252-.31 2.376.496 3.919 2.329 3.919 4.654 0 1.983-.901 3.518-2.59 4.41-.795.42-1.251.465-5.78.566-4.696.105-4.953.132-5.707.601-.995.618-1.72 1.572-2.014 2.648-.138.505-.229 3-.23 6.289-.001 5.45-.001 5.452-.545 6.543a4.55 4.55 0 0 1-1.517 1.765c-.854.592-1.164.681-2.542.73-1.233.044-1.73-.031-2.317-.35zm-99.966-31.736c-3.322-1.655-3.926-6.027-1.167-8.449 1.075-.944 1.939-1.262 3.428-1.262 2.082 0 3.698.973 4.633 2.787 2.235 4.338-2.513 9.108-6.894 6.924z" fill="#1b1b1d"/></svg>